<svg height="606" width="720" xmlns="http://www.w3.org/2000/svg">
<rect height="606" fill="#555" width="720"></rect>
<text fill="#7f7" font-family="Courier New" font-size="12" xml:space="preserve">
<tspan x="10" y="26">3 megabytes installed</tspan>
<tspan x="10" y="42"></tspan>
<tspan x="10" y="58">node_modules</tspan>
<tspan x="10" y="74">└─┬ prompt@1.0.0 </tspan>
<tspan x="10" y="90">  ├── colors@1.1.2 </tspan>
<tspan x="10" y="106">  ├── pkginfo@0.4.0 </tspan>
<tspan x="10" y="122">  ├─┬ read@1.0.7 </tspan>
<tspan x="10" y="138">  │ └── mute-stream@0.0.7 </tspan>
<tspan x="10" y="154">  ├── revalidator@0.1.8 </tspan>
<tspan x="10" y="170">  ├─┬ utile@0.3.0 </tspan>
<tspan x="10" y="186">  │ ├── async@0.9.2 </tspan>
<tspan x="10" y="202">  │ ├── deep-equal@0.2.2 </tspan>
<tspan x="10" y="218">  │ ├── i@0.3.5 </tspan>
<tspan x="10" y="234">  │ ├─┬ mkdirp@0.5.1 </tspan>
<tspan x="10" y="250">  │ │ └── minimist@0.0.8 </tspan>
<tspan x="10" y="266">  │ ├── ncp@1.0.1 </tspan>
<tspan x="10" y="282">  │ └─┬ rimraf@2.6.1 </tspan>
<tspan x="10" y="298">  │   └─┬ glob@7.1.1 </tspan>
<tspan x="10" y="314">  │     ├── fs.realpath@1.0.0 </tspan>
<tspan x="10" y="330">  │     ├─┬ inflight@1.0.6 </tspan>
<tspan x="10" y="346">  │     │ └── wrappy@1.0.2 </tspan>
<tspan x="10" y="362">  │     ├── inherits@2.0.3 </tspan>
<tspan x="10" y="378">  │     ├─┬ minimatch@3.0.3 </tspan>
<tspan x="10" y="394">  │     │ └─┬ brace-expansion@1.1.7 </tspan>
<tspan x="10" y="410">  │     │   ├── balanced-match@0.4.2 </tspan>
<tspan x="10" y="426">  │     │   └── concat-map@0.0.1 </tspan>
<tspan x="10" y="442">  │     ├── once@1.4.0 </tspan>
<tspan x="10" y="458">  │     └── path-is-absolute@1.0.1 </tspan>
<tspan x="10" y="474">  └─┬ winston@2.1.1 </tspan>
<tspan x="10" y="490">    ├── async@1.0.0 </tspan>
<tspan x="10" y="506">    ├── colors@1.0.3 </tspan>
<tspan x="10" y="522">    ├── cycle@1.0.3 </tspan>
<tspan x="10" y="538">    ├── eyes@0.1.8 </tspan>
<tspan x="10" y="554">    ├── isstream@0.1.2 </tspan>
<tspan x="10" y="570">    ├── pkginfo@0.3.1 </tspan>
<tspan x="10" y="586">    └── stack-trace@0.0.9</tspan>
</text>
</svg>
